<svg xmlns="http://www.w3.org/2000/svg" viewBox="0 0 64 64" fill="none">
  <defs>
    <linearGradient id="fg" x1="0" y1="0" x2="64" y2="64" gradientUnits="userSpaceOnUse">
      <stop offset="0%" stop-color="#38bdf8"/>
      <stop offset="100%" stop-color="#6366f1"/>
    </linearGradient>
  </defs>

  <!-- Connecting lines -->
  <line x1="32" y1="52" x2="22" y2="39" stroke="url(#fg)" stroke-width="2" opacity="0.7"/>
  <line x1="32" y1="52" x2="42" y2="39" stroke="url(#fg)" stroke-width="2" opacity="0.7"/>
  <line x1="22" y1="39" x2="13" y2="26" stroke="url(#fg)" stroke-width="2" opacity="0.7"/>
  <line x1="22" y1="39" x2="32" y2="26" stroke="url(#fg)" stroke-width="2" opacity="0.7"/>
  <line x1="42" y1="39" x2="32" y2="26" stroke="url(#fg)" stroke-width="2" opacity="0.7"/>
  <line x1="42" y1="39" x2="51" y2="26" stroke="url(#fg)" stroke-width="2" opacity="0.7"/>
  <line x1="13" y1="26" x2="20" y2="13" stroke="url(#fg)" stroke-width="2" opacity="0.7"/>
  <line x1="32" y1="26" x2="38" y2="13" stroke="url(#fg)" stroke-width="2" opacity="0.7"/>
  <line x1="51" y1="26" x2="38" y2="13" stroke="url(#fg)" stroke-width="2" opacity="0.7"/>
  <line x1="51" y1="26" x2="57" y2="13" stroke="url(#fg)" stroke-width="2" opacity="0.7"/>

  <!-- Root hexagon -->
  <polygon points="32,48 37,51 37,57 32,60 27,57 27,51" fill="#6366f1"/>
  <!-- L2 -->
  <polygon points="22,35 27,38 27,44 22,47 17,44 17,38" fill="#4f87f0"/>
  <polygon points="42,35 47,38 47,44 42,47 37,44 37,38" fill="#3b9fd8"/>
  <!-- L3 -->
  <polygon points="13,22 18,25 18,31 13,34 8,31 8,25" fill="#2ab8c8"/>
  <polygon points="32,22 37,25 37,31 32,34 27,31 27,25" fill="#1dcdd4"/>
  <polygon points="51,22 56,25 56,31 51,34 46,31 46,25" fill="#10e0e0"/>
  <!-- L4 -->
  <polygon points="20,9 25,12 25,18 20,21 15,18 15,12" fill="#06d6e0"/>
  <polygon points="38,9 43,12 43,18 38,21 33,18 33,12" fill="#00e5f0"/>
  <polygon points="57,9 62,12 62,18 57,21 52,18 52,12" fill="#00b4d8"/>
</svg>
